<svg aria-hidden="true" style="position: absolute; width: 0; height: 0; overflow: hidden;" version="1.1" xmlns="http://www.w3.org/2000/svg" xmlns:xlink="http://www.w3.org/1999/xlink">
<defs>
  
<symbol id="icon-filter" viewBox="0 0 31 32">
  <path stroke-linejoin="miter" stroke-linecap="butt" stroke-miterlimit="4" stroke-width="1.28" d="M8.552 7.84h13.616c1.012 0 1.832 0.82 1.832 1.832 0 0.468-0.179 0.918-0.5 1.258l-6.146 6.511v4.507c0 1.469-1.535 2.434-2.859 1.796-0.69-0.332-1.129-1.031-1.129-1.796v-4.507l-6.146-6.511c-0.321-0.34-0.5-0.79-0.5-1.258 0-1.012 0.82-1.832 1.832-1.832z"></path>
</symbol>

<symbol id="icon-close" viewBox="0 0 32 32">
  <path stroke-linejoin="miter" stroke-linecap="butt" stroke-miterlimit="4" stroke-width="1.3333" d="M25.5 16c0 5.247-4.253 9.5-9.5 9.5s-9.5-4.253-9.5-9.5c0-5.247 4.253-9.5 9.5-9.5s9.5 4.253 9.5 9.5z"></path>
  <path stroke-linejoin="miter" stroke-linecap="round" stroke-miterlimit="4" stroke-width="1.3333" d="M19.699 12.346l-3.699 3.699M16 16.045l-3.699 3.699M16 16.045l3.699 3.699M16 16.045l-3.699-3.699"></path>
</symbol>

<symbol id="arrow-left" viewBox="0 0 33 32">
  <path stroke="currentColor" stroke-linejoin="round" stroke-linecap="round"
        stroke-miterlimit="4" stroke-width="1.3333"
        d="M26.664 16l-19.996 0.004M6.668 16.004l5.384 5.386M6.668 16.004l5.384-5.386"></path>
</symbol>

<symbol id="arrow-right" viewBox="0 0 33 32">
  <path stroke="currentColor" stroke-linejoin="round" stroke-linecap="round"
        stroke-miterlimit="4" stroke-width="1.3333"
        d="M6.667 16.004l19.996-0.004M26.663 16l-5.384-5.386M26.663 16l-5.384 5.386"></path>
</symbol>

</defs>
</svg>